<?xml version="1.0" standalone="no"?>
<!DOCTYPE svg PUBLIC "-//W3C//DTD SVG 1.1//EN" "http://www.w3.org/Graphics/SVG/1.1/DTD/svg11.dtd" >
<svg xmlns="http://www.w3.org/2000/svg" xmlns:xlink="http://www.w3.org/1999/xlink" version="1.1">
<metadata></metadata>
<defs>
<font id="metropolisextra_bold" horiz-adv-x="652" >
<font-face units-per-em="1000" ascent="795" descent="-205" />
<missing-glyph horiz-adv-x="289" />
<glyph horiz-adv-x="0" />
<glyph horiz-adv-x="333" />
<glyph unicode=" "  horiz-adv-x="289" />
<glyph unicode="&#x09;" horiz-adv-x="289" />
<glyph unicode="&#xa0;" horiz-adv-x="289" />
<glyph unicode="!" horiz-adv-x="333" d="M109 271l-40 450h200l-39 -450h-121zM170 -13q-47 0 -79 32.5t-32 78.5q0 43 32 74.5t79 31.5q28 0 52.5 -14.5t39 -39t14.5 -52.5q0 -46 -31 -78.5t-75 -32.5z" />
<glyph unicode="&#x22;" horiz-adv-x="577" d="M119 401q-57 172 -57 241q0 37 26.5 64.5t63.5 27.5t64 -27.5t27 -64.5q0 -69 -57 -241h-67zM392 401q-57 172 -57 241q0 37 26.5 64.5t63.5 27.5t64 -27.5t27 -64.5q0 -69 -57 -241h-67z" />
<glyph unicode="#" horiz-adv-x="709" d="M648 433h-95l-36 -146h94l-30 -126h-96l-41 -161h-127l41 161h-108l-41 -161h-128l41 161h-92l31 126h92l37 146h-94l30 126h96l40 162h129l-41 -162h108l41 162h127l-41 -162h94zM390 287l36 146h-108l-37 -146h109z" />
<glyph unicode="$" horiz-adv-x="670" d="M637 223q0 -101 -66.5 -163t-184.5 -72v-66h-109v70q-154 19 -260 116l101 121q111 -91 237 -91q49 0 75.5 18t26.5 48t-26.5 43.5t-112.5 33.5q-52 12 -88 23t-72.5 28.5t-58.5 39.5t-36 55.5t-14 75.5q0 62 28.5 111t80 79t119.5 38v66h109v-66q133 -14 231 -96 l-91 -128q-101 77 -206 77q-21 0 -38 -5t-28.5 -13.5t-17.5 -20t-6 -24.5q0 -32 29 -48t113 -34q52 -11 90 -23t73 -29.5t56 -39.5t33.5 -53.5t12.5 -70.5z" />
<glyph unicode="%" horiz-adv-x="892" d="M219 357q-81 0 -132 53t-51 133q0 79 51 132.5t132 53.5q83 0 134 -54t51 -132q0 -80 -51.5 -133t-133.5 -53zM132 0l505 721h124l-504 -721h-125zM219 459q31 0 50.5 22.5t19.5 61.5q0 38 -19.5 61t-50.5 23q-29 0 -48.5 -23t-19.5 -61t19.5 -61t48.5 -23zM673 -12 q-82 0 -133.5 54t-51.5 132q0 80 51.5 133.5t133.5 53.5q54 0 96.5 -25t65 -67.5t22.5 -94.5q0 -79 -52 -132.5t-132 -53.5zM673 90q31 0 50 23t19 61t-19.5 61t-49.5 23q-31 0 -50 -22t-19 -62q0 -25 9 -44t24.5 -29.5t35.5 -10.5z" />
<glyph unicode="&#x26;" horiz-adv-x="716" d="M693 44l-144 -64q-48 51 -71 76q-93 -69 -205 -69q-110 0 -179 56.5t-69 154.5q0 48 16 84t49 64.5t88 53.5q-27 41 -37.5 71.5t-10.5 70.5q0 77 62 133t149 56q94 0 154.5 -53.5t60.5 -134.5q0 -56 -35.5 -94t-124.5 -81q81 -91 94 -106q38 57 65 123l126 -61 q-50 -97 -98 -161q14 -16 31.5 -35t40.5 -43.5t38 -40.5zM345 608q-13 0 -25.5 -5t-21 -14t-14 -21t-5.5 -26q0 -16 5.5 -30.5t13.5 -26.5t23 -30q20 8 33 14.5t24 14t17 16t9 19t3 23.5q0 29 -17.5 47.5t-44.5 18.5zM296 120q45 0 90 32q-73 79 -131 146q-53 -35 -53 -87 q0 -27 13 -48.5t34 -32t47 -10.5z" />
<glyph unicode="'" horiz-adv-x="304" d="M119 401q-57 172 -57 241q0 37 26.5 64.5t63.5 27.5t64 -27.5t27 -64.5q0 -69 -57 -241h-67z" />
<glyph unicode="(" horiz-adv-x="411" d="M290 -178q-76 51 -129.5 121.5t-82.5 156t-29 178.5q0 94 29 179.5t82.5 155.5t129.5 122l89 -95q-81 -83 -117.5 -168.5t-36.5 -193.5q0 -72 16.5 -133.5t50 -116.5t87.5 -111z" />
<glyph unicode=")" horiz-adv-x="411" d="M122 -178l-89 95q81 83 117.5 168t36.5 193q0 109 -36.5 194t-117.5 168l89 95q114 -79 177 -197.5t63 -259.5q0 -140 -63 -259t-177 -197z" />
<glyph unicode="*" horiz-adv-x="413" d="M208 352q-19 0 -32 12t-13 29q0 15 4.5 36t10.5 44t8 36q-9 -7 -21.5 -19t-22 -22t-22 -20.5t-22.5 -17.5q-15 -8 -32 -2.5t-26 21.5t-5 33.5t19 25.5q10 6 25.5 11.5t29 8.5t30 8t27.5 9q-12 5 -53.5 16.5t-58.5 21.5q-15 8 -19 25t5 34q9 16 26.5 21.5t31.5 -3.5 q13 -7 28.5 -22t32 -32t27.5 -25q-2 12 -13 54t-11 62q0 11 6 20.5t16.5 15t22.5 5.5q18 0 31 -12t13 -29q0 -15 -5 -36t-11.5 -44t-8.5 -36q12 9 42 39t47 39q14 9 31.5 3.5t26.5 -22.5q9 -15 5 -32.5t-18 -25.5q-17 -10 -59 -21t-54 -16q12 -5 54 -16.5t59 -21.5 q14 -8 18 -25t-5 -34q-9 -16 -26.5 -21.5t-31.5 2.5q-10 7 -22.5 17.5t-22.5 21t-22 22.5t-21 19q2 -13 13.5 -54.5t11.5 -61.5q0 -17 -13 -29t-31 -12z" />
<glyph unicode="+" horiz-adv-x="636" d="M575 421v-141h-181v-188h-150v188h-184v141h184v187h150v-187h181z" />
<glyph unicode="," horiz-adv-x="317" d="M149 -159l-61 47q53 46 67 99q-42 0 -73 32t-31 75q0 45 31.5 77.5t75.5 32.5q49 0 80.5 -41t31.5 -105q0 -107 -121 -217z" />
<glyph unicode="-" horiz-adv-x="380" d="M44 216v148h293v-148h-293z" />
<glyph unicode="." horiz-adv-x="317" d="M162 -13q-47 0 -79.5 32.5t-32.5 78.5q0 43 32.5 74.5t79.5 31.5q43 0 74.5 -32t31.5 -74q0 -46 -31.5 -78.5t-74.5 -32.5z" />
<glyph unicode="/" horiz-adv-x="500" d="M-27 -78l359 858h186l-359 -858h-186z" />
<glyph unicode="0" horiz-adv-x="747" d="M374 -13q-146 0 -239 105t-93 269t93 268.5t239 104.5t239 -104.5t93 -268.5t-93 -269t-239 -105zM374 150q65 0 106.5 59.5t41.5 151.5t-41.5 151t-106.5 59t-106 -59t-41 -151t41 -151.5t106 -59.5z" />
<glyph unicode="1" horiz-adv-x="456" d="M204 0v519l-122 -76l-72 125l229 153h143v-721h-178z" />
<glyph unicode="2" horiz-adv-x="648" d="M44 0v146l267 199q58 44 81 77.5t23 67.5q0 37 -27.5 59t-68.5 22q-48 0 -88.5 -22t-83.5 -68l-112 111q117 142 288 142q121 0 198 -66.5t77 -169.5q0 -75 -37 -134.5t-128 -121.5l-114 -81h287v-161h-562z" />
<glyph unicode="3" horiz-adv-x="642" d="M321 -14q-96 0 -172.5 32.5t-126.5 88.5l103 119q79 -79 187 -79q53 0 82.5 20t29.5 52q0 24 -12 38.5t-40.5 22.5t-73.5 8l-85 -1v151h85q54 -1 83 16t29 49q0 33 -29.5 51.5t-79.5 18.5q-85 0 -163 -76l-101 109q109 128 283 128q125 0 198.5 -55.5t73.5 -141.5 q0 -60 -36 -104t-97 -61q64 -16 106.5 -59.5t42.5 -108.5q0 -97 -78.5 -157.5t-208.5 -60.5z" />
<glyph unicode="4" horiz-adv-x="689" d="M386 0v138h-349l-16 136l327 446h218v-433h91v-149h-91v-138h-180zM207 287h179v247z" />
<glyph unicode="5" horiz-adv-x="655" d="M318 -14q-174 0 -286 110l102 127q90 -81 184 -81q55 0 87 26.5t32 66.5q0 27 -14.5 47t-40.5 31t-62 11q-74 0 -132 -45l-119 47l11 395h495v-160h-330l-5 -132q58 42 137 42q100 0 169 -61.5t69 -167.5q0 -118 -80.5 -187t-216.5 -69z" />
<glyph unicode="6" horiz-adv-x="681" d="M396 471q103 0 173 -63t70 -168q0 -112 -80.5 -182.5t-202.5 -70.5q-156 0 -236.5 97.5t-80.5 263.5q0 173 93.5 279.5t250.5 106.5q130 0 227 -76l-83 -135q-68 55 -143 55q-63 0 -103 -43t-52 -120q70 56 167 56zM345 140q50 0 80.5 27t30.5 66q0 22 -9.5 40t-25.5 30 t-36.5 18.5t-43.5 6.5q-37 0 -66.5 -18.5t-45.5 -51.5q6 -41 19 -66.5t37 -38.5t60 -13z" />
<glyph unicode="7" horiz-adv-x="635" d="M111 0l281 561h-347v160h553v-135l-285 -586h-202z" />
<glyph unicode="8" horiz-adv-x="661" d="M331 -13q-83 0 -150 23.5t-107.5 71.5t-40.5 113q0 61 36 107t99 71q-117 53 -117 164q0 46 23 84t62 62.5t89 37.5t106 13q76 0 138.5 -22.5t102 -68.5t39.5 -106q0 -111 -117 -164q64 -28 100 -73.5t36 -104.5q0 -65 -41.5 -113t-108 -71.5t-149.5 -23.5zM331 434 q41 2 72 24t31 53q0 21 -13 38t-36.5 27t-53.5 10q-46 0 -74 -21.5t-28 -53.5t30 -53.5t72 -23.5zM331 136q51 0 84 22t33 57q0 34 -35.5 56t-81.5 24q-22 -1 -43 -7t-37.5 -16t-26.5 -25t-10 -32q0 -35 32.5 -57t84.5 -22z" />
<glyph unicode="9" horiz-adv-x="681" d="M326 734q104 0 176.5 -46.5t106.5 -126t34 -187.5q0 -173 -94 -280t-251 -107q-129 0 -227 76l83 135q68 -54 143 -54q63 0 103.5 42.5t52.5 120.5q-71 -57 -167 -57q-68 0 -123 27t-88 80.5t-33 123.5q0 113 80.5 183t203.5 70zM340 394q25 0 47 8t38.5 24t27.5 37 q-9 61 -36 90t-81 29q-49 0 -79.5 -27t-30.5 -67q0 -43 33 -68.5t81 -25.5z" />
<glyph unicode=":" horiz-adv-x="317" d="M162 348q-47 0 -79.5 32t-32.5 78q0 43 32.5 74.5t79.5 31.5q43 0 74.5 -31.5t31.5 -74.5q0 -46 -31.5 -78t-74.5 -32zM162 -13q-47 0 -79.5 32.5t-32.5 78.5q0 43 32.5 74.5t79.5 31.5q43 0 74.5 -32t31.5 -74q0 -46 -31.5 -78.5t-74.5 -32.5z" />
<glyph unicode=";" horiz-adv-x="317" d="M163 348q-47 0 -79.5 32t-32.5 78q0 43 32.5 74.5t79.5 31.5q43 0 74.5 -31.5t31.5 -74.5q0 -46 -31.5 -78t-74.5 -32zM149 -159l-61 47q53 46 67 99q-42 0 -73 32t-31 75q0 45 31.5 77.5t75.5 32.5q49 0 80.5 -41t31.5 -105q0 -107 -121 -217z" />
<glyph unicode="&#x3c;" horiz-adv-x="624" d="M552 84l-494 206v142l494 205v-140l-358 -137l358 -134v-142z" />
<glyph unicode="=" horiz-adv-x="636" d="M60 406v141h515v-141h-515zM60 164v140h515v-140h-515z" />
<glyph unicode="&#x3e;" horiz-adv-x="624" d="M72 84v142l358 134l-358 137v140l495 -205v-142z" />
<glyph unicode="?" horiz-adv-x="529" d="M172 262v165q66 2 108 24t42 55q0 29 -26 48t-66 19q-65 0 -118 -52l-99 103q103 110 249 110q107 0 174.5 -59.5t67.5 -151.5q0 -71 -49.5 -128t-127.5 -76v-57h-155zM250 -13q-47 0 -79 32.5t-32 78.5q0 43 32 74.5t79 31.5q43 0 74.5 -32t31.5 -74q0 -46 -31.5 -78.5 t-74.5 -32.5z" />
<glyph unicode="@" horiz-adv-x="922" d="M445 -122q-112 0 -204 53t-144 143.5t-52 198.5q0 87 35.5 168t94.5 140t140.5 94t170.5 35q84 0 157.5 -29.5t124.5 -79t80.5 -116t29.5 -137.5q0 -67 -20 -121t-52.5 -86t-70.5 -48.5t-78 -16.5q-103 0 -133 82q-60 -80 -150 -80q-80 0 -129 53.5t-49 139.5 q0 106 70.5 183.5t162.5 77.5q91 0 136 -71l13 58l144 -12q-10 -57 -22 -114.5t-17.5 -84.5t-9.5 -51.5t-4 -39.5q0 -25 14.5 -39.5t38.5 -14.5q45 0 77.5 48.5t32.5 136.5t-44 161t-124 115.5t-180 42.5q-108 0 -199 -53.5t-143.5 -143.5t-52.5 -196q0 -98 46.5 -179 t129 -128t183.5 -47q117 0 224 64l22 -33q-114 -73 -249 -73zM427 198q44 0 75 34.5t36 87.5q3 41 -17 66.5t-57 25.5q-51 0 -84.5 -39t-33.5 -91q0 -39 22.5 -61.5t58.5 -22.5z" />
<glyph unicode="A" horiz-adv-x="787" d="M579 0l-42 105h-286l-42 -105h-202l286 721h202l285 -721h-201zM307 246h174l-87 221z" />
<glyph unicode="B" horiz-adv-x="740" d="M70 0v721h377q100 0 163 -51t63 -130q0 -54 -26 -95.5t-74 -65.5q63 -28 98 -76.5t35 -107.5q0 -57 -31.5 -101.5t-87 -69t-126.5 -24.5h-391zM249 436h154q37 0 61 19t24 48q0 19 -11 34t-30 23.5t-44 8.5h-154v-133zM249 152h181q40 0 65.5 20.5t25.5 52.5 q0 20 -11.5 37t-32.5 26t-47 9h-181v-145z" />
<glyph unicode="C" horiz-adv-x="736" d="M427 -13q-103 0 -192.5 51t-142 137.5t-52.5 186t52.5 185.5t142 136.5t192.5 50.5q83 0 157.5 -33t129.5 -91l-131 -116q-19 23 -43.5 40.5t-53.5 27t-59 9.5q-82 0 -142.5 -62.5t-60.5 -147.5q0 -86 60.5 -148.5t142.5 -62.5q93 0 157 78l130 -116 q-55 -58 -129.5 -91.5t-157.5 -33.5z" />
<glyph unicode="D" horiz-adv-x="798" d="M70 0v721h264q186 0 304 -100.5t118 -259t-118 -260t-304 -101.5h-264zM250 163h111q92 0 151.5 56t59.5 142q0 57 -27 102t-75 70.5t-109 25.5h-111v-396z" />
<glyph unicode="E" horiz-adv-x="678" d="M635 561h-388v-113h353v-160h-353v-127h388v-161h-568v721h568v-160z" />
<glyph unicode="F" horiz-adv-x="675" d="M635 561h-388v-129h353v-161h-353v-271h-180v721h568v-160z" />
<glyph unicode="G" horiz-adv-x="779" d="M398 278v136h329v-302q-37 -39 -84.5 -67t-101.5 -43t-109 -15q-105 0 -195.5 51t-143.5 137.5t-53 186t53 185.5t143.5 136.5t195.5 50.5q83 0 161.5 -33t133.5 -91l-132 -116q-29 36 -73 56.5t-90 20.5q-85 0 -146.5 -62.5t-61.5 -147.5q0 -86 61.5 -148.5t146.5 -62.5 q64 0 120 38v90h-154z" />
<glyph unicode="H" horiz-adv-x="788" d="M542 721h179v-721h-179v288h-295v-288h-180v721h180v-273h295v273z" />
<glyph unicode="I" horiz-adv-x="319" d="M70 0v721h180v-721h-180z" />
<glyph unicode="J" horiz-adv-x="573" d="M256 -13q-71 0 -141 34t-107 86l117 115q16 -32 47 -52t62 -20q43 0 70.5 28.5t27.5 73.5v469h179v-486q0 -108 -71.5 -178t-183.5 -70z" />
<glyph unicode="K" horiz-adv-x="747" d="M69 0v721h180v-307l268 307h213l-274 -306l295 -415h-217l-202 286l-83 -90v-196h-180z" />
<glyph unicode="L" horiz-adv-x="618" d="M244 161h347v-161h-526v721h179v-560z" />
<glyph unicode="M" horiz-adv-x="915" d="M70 0v721h180l208 -376l208 376h179v-721h-179v418l-208 -376l-208 376v-418h-180z" />
<glyph unicode="N" horiz-adv-x="813" d="M70 0v721h180l314 -426v426h179v-721h-179l-314 426v-426h-180z" />
<glyph unicode="O" horiz-adv-x="853" d="M427 -13q-103 0 -192.5 51t-142 137.5t-52.5 186t52.5 185.5t142 136.5t192.5 50.5q104 0 193.5 -50.5t142.5 -136.5t53 -185.5t-53 -186t-142.5 -137.5t-193.5 -51zM427.5 150q82.5 0 143 62.5t60.5 148.5q0 85 -60.5 147.5t-143 62.5t-143 -62.5t-60.5 -147.5 q0 -86 60.5 -148.5t143 -62.5z" />
<glyph unicode="P" horiz-adv-x="698" d="M67 0v721h335q120 0 197 -69t77 -178t-77 -178.5t-197 -69.5h-155v-226h-180zM247 390h138q31 0 55 10t37.5 29.5t13.5 44t-13.5 44t-37.5 30t-55 10.5h-138v-168z" />
<glyph unicode="Q" horiz-adv-x="853" d="M816 361q0 -112 -66 -205l64 -55l-87 -101l-71 61q-103 -74 -229 -74q-103 0 -192.5 51t-142 137.5t-52.5 186t52.5 185.5t142 136.5t192.5 50.5q104 0 193.5 -50.5t142.5 -136.5t53 -186zM427 150q53 0 97 26l-75 66l88 100l76 -66q18 41 18 85q0 85 -60.5 147.5 t-143 62.5t-143 -62.5t-60.5 -147.5q0 -86 60.5 -148.5t142.5 -62.5z" />
<glyph unicode="R" horiz-adv-x="722" d="M697 0h-203l-159 226h-88v-226h-180v721h335q120 0 197 -69t77 -178q0 -78 -41 -137.5t-112 -88.5zM247 558v-168h138q31 0 55 10t37.5 29.5t13.5 44t-13.5 44t-37.5 30t-55 10.5h-138z" />
<glyph unicode="S" horiz-adv-x="670" d="M349 -13q-199 0 -332 121l101 121q111 -91 237 -91q49 0 75.5 18t26.5 48t-26.5 43.5t-112.5 33.5q-52 12 -88 23t-72.5 28.5t-58.5 39.5t-36 55.5t-14 75.5q0 104 76.5 167.5t200.5 63.5q173 0 291 -99l-91 -128q-101 77 -206 77q-21 0 -38 -5t-28.5 -13.5t-17.5 -20 t-6 -24.5q0 -32 29 -48t113 -34q52 -11 90 -23t73 -29.5t56 -39.5t33.5 -53.5t12.5 -70.5q0 -109 -77.5 -172.5t-210.5 -63.5z" />
<glyph unicode="T" horiz-adv-x="674" d="M248 0v561h-220v160h618v-160h-219v-561h-179z" />
<glyph unicode="U" horiz-adv-x="795" d="M398 -13q-147 0 -241 92t-94 237v405h180v-397q0 -50 19.5 -89.5t55 -62t80.5 -22.5t81 22.5t55.5 62t19.5 89.5v397h179v-405q0 -145 -93.5 -237t-241.5 -92z" />
<glyph unicode="V" horiz-adv-x="787" d="M579 721h201l-285 -721h-202l-286 721h202l185 -467z" />
<glyph unicode="W" horiz-adv-x="1130" d="M225 0l-210 721h194l110 -450l150 450h194l149 -450l110 450h194l-209 -721h-180l-161 457l-161 -457h-180z" />
<glyph unicode="X" horiz-adv-x="751" d="M740 721l-259 -359l259 -362h-210l-155 216l-157 -216h-206l260 359l-260 362h211l154 -215l156 215h207z" />
<glyph unicode="Y" horiz-adv-x="736" d="M278 0v249l-279 472h207l163 -304l170 304h199l-279 -472v-249h-181z" />
<glyph unicode="Z" horiz-adv-x="701" d="M46 0v134l360 427h-352v160h598v-134l-359 -426h364v-161h-611z" />
<glyph unicode="[" horiz-adv-x="411" d="M70 -159v892h299v-113h-161v-665h161v-114h-299z" />
<glyph unicode="\" horiz-adv-x="500" d="M343 -78l-359 858h186l359 -858h-186z" />
<glyph unicode="]" horiz-adv-x="411" d="M43 -159v114h160v665h-160v113h297v-892h-297z" />
<glyph unicode="^" horiz-adv-x="511" d="M42 434l153 287h121l153 -287h-123l-91 180l-91 -180h-122z" />
<glyph unicode="_" horiz-adv-x="621" d="M-2 -164v97h626v-97h-626z" />
<glyph unicode="`" horiz-adv-x="407" d="M224 603l-158 140l157 28l118 -168h-117z" />
<glyph unicode="a" horiz-adv-x="613" d="M313 555q42 0 79 -10t67.5 -30t52.5 -48t34 -65t12 -80v-322h-172v46q-28 -28 -67.5 -43.5t-82.5 -15.5q-88 0 -147.5 49t-59.5 125q0 78 66.5 129t163.5 51q62 0 127 -26v7q0 45 -31.5 72.5t-86.5 27.5q-60 0 -137 -40l-55 112q124 61 237 61zM279 97q41 0 71.5 18 t35.5 48v57q-46 18 -101 18q-37 0 -62 -20.5t-25 -51.5t23 -50t58 -19z" />
<glyph unicode="b" horiz-adv-x="700" d="M416 555q109 0 179 -79.5t70 -203.5q0 -125 -70 -205t-179 -80t-178 82v-69h-178v734h178v-260q69 81 178 81zM362 135q58 0 95 38.5t37 98.5q0 59 -37 97t-95 38q-55 0 -89.5 -38t-34.5 -97q0 -60 34.5 -98.5t89.5 -38.5z" />
<glyph unicode="c" horiz-adv-x="577" d="M333 -13q-80 0 -149.5 39t-110 104.5t-40.5 141.5q0 45 15.5 88.5t43.5 78t65.5 61t83.5 41t94 14.5q133 0 219 -96l-117 -98q-19 20 -47 33t-56 13q-53 0 -91.5 -40t-38.5 -94q0 -37 17.5 -68.5t47.5 -50.5t65 -19q29 0 58 13.5t48 35.5l118 -97q-88 -100 -225 -100z " />
<glyph unicode="d" horiz-adv-x="700" d="M462 734h178v-734h-178v69q-69 -82 -177 -82q-110 0 -179.5 80t-69.5 205q0 124 69.5 203.5t179.5 79.5q108 0 177 -81v260zM338 135q55 0 89.5 38.5t34.5 98.5q0 59 -34.5 97t-89.5 38q-57 0 -94 -38t-37 -97q0 -39 16.5 -70.5t46.5 -49t68 -17.5z" />
<glyph unicode="e" horiz-adv-x="621" d="M319 131q32 0 65.5 12.5t57.5 33.5l105 -106q-24 -24 -61 -43t-79.5 -30t-82.5 -11q-126 0 -208.5 80.5t-82.5 205.5q0 123 80 202.5t203 79.5q129 0 201 -88.5t72 -243.5h-387q8 -28 24.5 -48.5t40.5 -32t52 -11.5zM319 413q-40 0 -70.5 -22t-44.5 -60h220q-5 18 -15 33 t-23 26t-30 17t-37 6z" />
<glyph unicode="f" horiz-adv-x="408" d="M265 558v-15h112v-142h-112v-401h-171v401h-71v142h71v39q0 76 48.5 125t125.5 49q34 0 71 -14.5t61 -36.5l-36 -107q-18 18 -50 18q-14 0 -25.5 -7t-17.5 -20.5t-6 -30.5z" />
<glyph unicode="g" horiz-adv-x="685" d="M446 543h179v-485q0 -105 -84 -172t-217 -67q-71 0 -136.5 20t-108.5 53l60 124q25 -22 68.5 -35.5t89.5 -13.5q67 0 108 28t41 71v52q-32 -37 -77.5 -57.5t-95.5 -20.5q-67 0 -121 32.5t-85.5 92t-31.5 133.5q0 113 68 185t170 72q51 0 98.5 -21.5t74.5 -56.5v66z M332 188q33 0 59 14t40.5 39.5t14.5 56.5q0 48 -32 78.5t-82 30.5t-82.5 -30.5t-32.5 -78.5q0 -13 3 -26t8.5 -24t13 -20.5t17.5 -16.5t21.5 -12.5t24.5 -8t27 -2.5z" />
<glyph unicode="h" d="M396 555q87 0 143 -58.5t56 -151.5v-345h-170v306q0 44 -25.5 72.5t-66.5 28.5t-68.5 -27t-27.5 -67v-313h-178v734h178v-252q26 34 67 53.5t92 19.5z" />
<glyph unicode="i" horiz-adv-x="302" d="M152 609q-39 0 -66.5 28t-27.5 67q0 37 27.5 64.5t66.5 27.5q38 0 65.5 -27.5t27.5 -64.5q0 -39 -27 -67t-66 -28zM62 0v543h177v-543h-177z" />
<glyph unicode="j" horiz-adv-x="302" d="M152 609q-39 0 -66.5 28t-27.5 67q0 37 27.5 64.5t66.5 27.5q38 0 65.5 -27.5t27.5 -64.5q0 -39 -27 -67t-66 -28zM59 -187q-69 0 -117 23l18 130q25 -9 54 -9q14 0 25 7.5t17 21t6 30.5v527h177v-547q0 -81 -50.5 -132t-129.5 -51z" />
<glyph unicode="k" horiz-adv-x="610" d="M408 306l202 -306h-202l-117 192l-55 -63v-129h-178v734h178v-405l171 214h202z" />
<glyph unicode="l" horiz-adv-x="302" d="M62 0v734h178v-734h-178z" />
<glyph unicode="m" horiz-adv-x="988" d="M728 555q42 0 79.5 -15.5t64.5 -43t43 -66.5t16 -85v-346h-170v315q0 27 -11 48.5t-30.5 33t-44.5 11.5q-40 0 -65.5 -24t-25.5 -62v-322h-170v315q0 41 -24.5 67t-61.5 26q-27 0 -48 -11t-32.5 -30.5t-11.5 -44.5v-321h-177v543h177v-71q13 26 34.5 44.5t49.5 28.5 t61 10q54 0 99 -24.5t72 -68.5q23 43 69.5 68t106.5 25z" />
<glyph unicode="n" d="M396 555q87 0 143 -58.5t56 -151.5v-345h-170v306q0 44 -25.5 72.5t-66.5 28.5t-68.5 -27t-27.5 -67l-1 3v-316h-177v543h177v-62q26 35 67.5 54.5t92.5 19.5z" />
<glyph unicode="o" horiz-adv-x="666" d="M333.5 -13q-80.5 0 -150 39t-110 104.5t-40.5 141.5t40.5 141.5t110 103.5t150 38t150.5 -38t110.5 -103.5t40.5 -141.5t-40.5 -141.5t-110.5 -104.5t-150.5 -39zM334 135q54 0 93.5 41t39.5 96t-39.5 95t-93.5 40q-36 0 -66.5 -18t-48.5 -49.5t-18 -67.5q0 -55 39.5 -96 t93.5 -41z" />
<glyph unicode="p" horiz-adv-x="700" d="M416 555q109 0 179 -79.5t70 -203.5q0 -125 -70 -205t-179 -80t-178 82v-250h-178v724h178v-69q69 81 178 81zM362 135q58 0 95 38.5t37 98.5q0 59 -37 97t-95 38q-55 0 -89.5 -38t-34.5 -97q0 -60 34.5 -98.5t89.5 -38.5z" />
<glyph unicode="q" horiz-adv-x="700" d="M462 543h178v-724h-178v250q-69 -82 -177 -82q-110 0 -179.5 80t-69.5 205q0 124 69.5 203.5t179.5 79.5q108 0 177 -81v69zM338 135q55 0 89.5 38.5t34.5 98.5q0 59 -34.5 97t-89.5 38q-57 0 -94 -38t-37 -97q0 -39 16.5 -70.5t46.5 -49t68 -17.5z" />
<glyph unicode="r" horiz-adv-x="434" d="M237 442q14 26 32.5 47t41 36t49.5 22.5t56 7.5v-148q-55 0 -95 -19.5t-61.5 -56.5t-21.5 -86l-1 2v-247h-177v543h177v-101z" />
<glyph unicode="s" horiz-adv-x="529" d="M271 -13q-69 0 -136 22t-116 60l71 115q40 -28 89 -45t96 -17q29 0 45 9t16 24q0 18 -21 28.5t-68 21.5q-39 9 -62.5 15.5t-53.5 20t-47 30t-29 43t-12 60.5q0 79 60 130t159 51q118 0 221 -69l-65 -116q-83 53 -156 53q-23 0 -39 -9t-16 -22q0 -17 16 -24.5t71 -22.5 q36 -8 59 -15t54 -21.5t48.5 -32t30.5 -45.5t13 -64q0 -82 -62 -131t-166 -49z" />
<glyph unicode="t" horiz-adv-x="427" d="M364 153l36 -114q-24 -23 -61 -37.5t-71 -14.5q-77 0 -125.5 49t-48.5 126v239h-71v142h71v149h171v-149h112v-142h-112v-207q0 -26 14 -42.5t35 -16.5q32 0 50 18z" />
<glyph unicode="u" d="M416 543h177v-543h-177v62q-26 -35 -67.5 -55t-92.5 -20q-87 0 -143 59t-56 151v346h170v-306q0 -45 25.5 -73.5t66.5 -28.5t68.5 27.5t27.5 67.5l1 -3v316z" />
<glyph unicode="v" d="M245 0l-236 543h184l135 -339l131 339h184l-233 -543h-165z" />
<glyph unicode="w" horiz-adv-x="886" d="M200 0l-186 543h172l91 -305l94 305h146l94 -305l91 305h173l-185 -543h-159l-87 310l-86 -310h-158z" />
<glyph unicode="x" horiz-adv-x="599" d="M590 0h-190l-102 145l-103 -145h-186l197 276l-187 267h189l93 -132l94 132h186l-187 -264z" />
<glyph unicode="y" horiz-adv-x="634" d="M201 -189q-38 0 -80 11t-73 28l37 117q49 -27 75 -27q44 0 58 23l15 31l-223 549h183l127 -358l120 358h181l-214 -559q-32 -83 -85.5 -128t-120.5 -45z" />
<glyph unicode="z" horiz-adv-x="564" d="M39 0v124l256 270h-249v149h481l-1 -124l-257 -270h260v-149h-490z" />
<glyph unicode="{" horiz-adv-x="431" d="M384 -174q-138 10 -196.5 55.5t-58.5 138.5l1 120q0 46 -23.5 66.5t-76.5 20.5v104q54 0 77 20.5t23 67.5l-1 119q0 93 59 138.5t196 55.5l14 -106q-82 -10 -107 -30t-25 -72l1 -127q0 -91 -82 -118q82 -26 82 -118l-1 -126q0 -54 25.5 -73.5t106.5 -29.5z" />
<glyph unicode="|" horiz-adv-x="321" d="M100 -78v858h122v-858h-122z" />
<glyph unicode="}" horiz-adv-x="431" d="M47 -174l-13 106q81 10 106.5 29.5t25.5 73.5l-1 126q0 92 82 118q-82 27 -82 118l1 127q0 52 -25.5 72t-106.5 30l13 106q93 -7 148.5 -29.5t81 -62.5t25.5 -102l-1 -119q0 -47 23 -67.5t76 -20.5v-104q-53 0 -76 -20.5t-23 -66.5l1 -120q0 -62 -25 -102t-81 -62.5 t-149 -29.5z" />
<glyph unicode="~" horiz-adv-x="477" d="M311 307q-33 0 -79.5 24t-59.5 24q-31 0 -42 -49l-85 11q9 73 38.5 108.5t83.5 35.5q32 0 79.5 -24t59.5 -24q32 0 42 49l85 -13q-8 -72 -38 -107t-84 -35z" />
<glyph unicode="&#xa1;" horiz-adv-x="333" d="M164 555q31 0 56.5 -14.5t40 -40t14.5 -55.5q0 -43 -32.5 -74.5t-78.5 -31.5q-43 0 -74.5 31.5t-31.5 74.5q0 46 31 78t75 32zM225 272l40 -450h-200l39 450h121z" />
<glyph unicode="&#xa2;" horiz-adv-x="577" d="M558 87q-73 -83 -181 -96v-69h-109v73q-101 21 -168 99.5t-67 177.5q0 98 67 176t168 100v70h109v-66q106 -13 177 -93l-117 -98q-19 20 -47 33t-56 13q-53 0 -91.5 -40t-38.5 -94q0 -37 17.5 -68.5t47.5 -50.5t65 -19q29 0 58 13.5t48 35.5z" />
<glyph unicode="&#xa3;" horiz-adv-x="698" d="M322 135h348v-135h-625v71l98 64v130h-76v87h76v134q0 109 71.5 178.5t183.5 69.5q48 0 96 -15t88 -42.5t64 -62.5l-117 -114q-15 31 -45.5 51t-64.5 20q-42 0 -69.5 -28.5t-27.5 -73.5v-117h158v-87h-158v-130z" />
<glyph unicode="&#xa5;" horiz-adv-x="736" d="M738 721l-229 -386h120v-87h-170v-61h170v-87h-170v-100h-181v100h-170v87h170v61h-170v87h120l-229 386h207l163 -304l170 304h199z" />
<glyph unicode="&#xa8;" horiz-adv-x="526" d="M149 608q-35 0 -59 24.5t-24 58.5q0 33 24 57.5t59 24.5q33 0 57.5 -24.5t24.5 -57.5q0 -17 -6.5 -32t-17.5 -26.5t-26.5 -18t-31.5 -6.5zM378 608q-34 0 -58.5 24.5t-24.5 58.5q0 33 24.5 57.5t58.5 24.5t58 -24.5t24 -57.5q0 -34 -24 -58.5t-58 -24.5z" />
<glyph unicode="&#xad;" horiz-adv-x="380" d="M44 216v148h293v-148h-293z" />
<glyph unicode="&#xaf;" horiz-adv-x="507" d="M66 606v101h375v-101h-375z" />
<glyph unicode="&#xb4;" horiz-adv-x="407" d="M66 603l120 168l155 -28l-157 -140h-118z" />
<glyph unicode="&#xb8;" horiz-adv-x="350" d="M207 -45q34 -1 56 -21t22 -51q0 -42 -32.5 -66.5t-84.5 -24.5q-62 0 -102 31l31 66q29 -24 62 -24q17 0 29 7.5t12 21.5q0 25 -32 25q-18 0 -30 -9l-26 24l34 78h85z" />
<glyph unicode="&#xbf;" horiz-adv-x="529" d="M279 555q23 0 44 -8.5t35.5 -23.5t23.5 -35t9 -43q0 -43 -32.5 -74.5t-79.5 -31.5q-43 0 -74.5 31.5t-31.5 74.5q0 46 31.5 78t74.5 32zM357 280v-164q-66 -2 -108 -24t-42 -55q0 -19 11.5 -34.5t32.5 -24t48 -8.5q65 0 118 52l100 -103q-104 -110 -250 -110 q-107 0 -174.5 59t-67.5 152q0 71 50 128t128 76v56h154z" />
<glyph unicode="&#xc0;" horiz-adv-x="787" d="M458 781h-118l-157 141l156 27zM579 0l-42 105h-286l-42 -105h-202l286 721h202l285 -721h-201zM307 246h174l-87 221z" />
<glyph unicode="&#xc1;" horiz-adv-x="787" d="M608 922l-158 -141h-117l120 168zM579 0l-42 105h-286l-42 -105h-202l286 721h202l285 -721h-201zM307 246h174l-87 221z" />
<glyph unicode="&#xc2;" horiz-adv-x="787" d="M395 856l-78 -75h-106l111 159h145l114 -159h-107zM579 0l-42 105h-286l-42 -105h-202l286 721h202l285 -721h-201zM307 246h174l-87 221z" />
<glyph unicode="&#xc3;" horiz-adv-x="787" d="M328 827q-32 0 -42 -49l-85 12q5 48 20 80t40 47.5t61 15.5q33 0 80 -24t59 -24q33 0 42 49l85 -12q-8 -72 -37.5 -107.5t-84.5 -35.5q-33 0 -79.5 24t-58.5 24zM579 0l-42 105h-286l-42 -105h-202l286 721h202l285 -721h-201zM307 246h174l-87 221z" />
<glyph unicode="&#xc4;" horiz-adv-x="787" d="M280 786q-35 0 -59 24.5t-24 58.5t24 58t59 24q22 0 41 -11t30 -30t11 -41q0 -16 -6.5 -31.5t-17.5 -26.5t-26 -18t-32 -7zM509.5 786q-34.5 0 -59 24.5t-24.5 58.5t24.5 58t58.5 24q23 0 42 -11t29.5 -30t10.5 -41q0 -34 -23.5 -58.5t-58 -24.5zM579 0l-42 105h-286 l-42 -105h-202l286 721h202l285 -721h-201zM307 246h174l-87 221z" />
<glyph unicode="&#xc5;" horiz-adv-x="787" d="M395 785q-51 0 -87 36t-36 87q0 34 16.5 62.5t45 45t61.5 16.5q51 0 87.5 -36.5t36.5 -87.5t-36.5 -87t-87.5 -36zM395 962q-22 0 -38 -16t-16 -38t16 -37.5t38 -15.5t37.5 15.5t15.5 37.5t-15.5 38t-37.5 16zM579 0l-42 105h-286l-42 -105h-202l286 721h202l285 -721 h-201zM307 246h174l-87 221z" />
<glyph unicode="&#xc6;" horiz-adv-x="1149" d="M1107 561h-389v-113h353v-160h-353v-127h389v-161h-568v110h-261l-64 -110h-207l417 721h683v-160zM356 246h183v316z" />
<glyph unicode="&#xc7;" horiz-adv-x="736" d="M427 150q93 0 157 78l130 -116q-50 -52 -115.5 -84.5t-139.5 -39.5l-15 -33q35 -1 56.5 -21t21.5 -51q0 -42 -32.5 -66.5t-84.5 -24.5q-62 0 -102 31l31 66q29 -24 62 -24q11 0 20 3t15 10t6 16q0 25 -32 25q-18 0 -30 -9l-25 24l25 57q-141 19 -238 125.5t-97 244.5 q0 100 52.5 186t142 136.5t192.5 50.5q83 0 157.5 -33t129.5 -91l-131 -116q-19 23 -43.5 40.5t-53.5 27t-59 9.5q-82 0 -142.5 -62.5t-60.5 -147.5q0 -86 60.5 -148.5t142.5 -62.5z" />
<glyph unicode="&#xc8;" horiz-adv-x="678" d="M458 781h-118l-157 141l156 27zM635 561h-388v-113h353v-160h-353v-127h388v-161h-568v721h568v-160z" />
<glyph unicode="&#xc9;" horiz-adv-x="678" d="M510 922l-157 -141h-118l120 168zM635 561h-388v-113h353v-160h-353v-127h388v-161h-568v721h568v-160z" />
<glyph unicode="&#xca;" horiz-adv-x="678" d="M352 856l-78 -75h-106l111 159h145l114 -159h-108zM635 561h-388v-113h353v-160h-353v-127h388v-161h-568v721h568v-160z" />
<glyph unicode="&#xcb;" horiz-adv-x="678" d="M237 786q-35 0 -59 24.5t-24 58.5q0 22 11 41t30 30t42 11q22 0 41 -11t30 -30t11 -41q0 -16 -6.5 -31.5t-17.5 -26.5t-26 -18t-32 -7zM466.5 786q-34.5 0 -59 24.5t-24.5 58.5t24.5 58t58.5 24t58 -24t24 -58t-23.5 -58.5t-58 -24.5zM635 561h-388v-113h353v-160h-353 v-127h388v-161h-568v721h568v-160z" />
<glyph unicode="&#xcc;" horiz-adv-x="319" d="M101 781l-158 141l157 27l118 -168h-117zM70 0v721h180v-721h-180z" />
<glyph unicode="&#xcd;" horiz-adv-x="319" d="M99 781l119 168l156 -27l-158 -141h-117zM70 0v721h180v-721h-180z" />
<glyph unicode="&#xce;" horiz-adv-x="319" d="M-24 781l111 159h145l113 -159h-107l-78 75l-78 -75h-106zM70 0v721h180v-721h-180z" />
<glyph unicode="&#xcf;" horiz-adv-x="319" d="M45 786q-35 0 -59 24.5t-24 58.5q0 22 11 41t30 30t42 11q33 0 57.5 -24.5t24.5 -57.5t-24.5 -58t-57.5 -25zM274 786q-34 0 -58.5 24.5t-24.5 58.5t24.5 58t58.5 24q23 0 42 -11t29.5 -30t10.5 -41q0 -34 -24 -58.5t-58 -24.5zM70 0v721h180v-721h-180z" />
<glyph unicode="&#xd0;" horiz-adv-x="850" d="M386 721q186 0 304 -100.5t118 -259t-118 -260t-304 -101.5h-263v282h-81v161h81v278h263zM414 163q92 0 151.5 56t59.5 142q0 57 -27 102t-75.5 70.5t-108.5 25.5h-112v-116h148l-1 -161h-147v-119h112z" />
<glyph unicode="&#xd1;" horiz-adv-x="813" d="M478 779q-33 0 -80 24t-59 24q-31 0 -42 -49l-85 12q9 73 38.5 108t83.5 35q32 0 79.5 -24t58.5 -24q33 0 42 49l86 -12q-8 -72 -38 -107.5t-84 -35.5zM70 0v721h180l314 -426v426h179v-721h-179l-314 426v-426h-180z" />
<glyph unicode="&#xd2;" horiz-adv-x="853" d="M370 781l-158 141l157 27l118 -168h-117zM427 -13q-103 0 -192.5 51t-142 137.5t-52.5 186t52.5 185.5t142 136.5t192.5 50.5q104 0 193.5 -50.5t142.5 -136.5t53 -185.5t-53 -186t-142.5 -137.5t-193.5 -51zM427.5 150q82.5 0 143 62.5t60.5 148.5q0 85 -60.5 147.5 t-143 62.5t-143 -62.5t-60.5 -147.5q0 -86 60.5 -148.5t143 -62.5z" />
<glyph unicode="&#xd3;" horiz-adv-x="853" d="M364 781l120 168l155 -27l-157 -141h-118zM427 -13q-103 0 -192.5 51t-142 137.5t-52.5 186t52.5 185.5t142 136.5t192.5 50.5q104 0 193.5 -50.5t142.5 -136.5t53 -185.5t-53 -186t-142.5 -137.5t-193.5 -51zM427.5 150q82.5 0 143 62.5t60.5 148.5q0 85 -60.5 147.5 t-143 62.5t-143 -62.5t-60.5 -147.5q0 -86 60.5 -148.5t143 -62.5z" />
<glyph unicode="&#xd4;" horiz-adv-x="853" d="M244 781l111 159h145l113 -159h-107l-79 75l-77 -75h-106zM427 -13q-103 0 -192.5 51t-142 137.5t-52.5 186t52.5 185.5t142 136.5t192.5 50.5q104 0 193.5 -50.5t142.5 -136.5t53 -185.5t-53 -186t-142.5 -137.5t-193.5 -51zM427.5 150q82.5 0 143 62.5t60.5 148.5 q0 85 -60.5 147.5t-143 62.5t-143 -62.5t-60.5 -147.5q0 -86 60.5 -148.5t143 -62.5z" />
<glyph unicode="&#xd5;" horiz-adv-x="853" d="M499 779q-33 0 -80 24t-59 24q-31 0 -42 -49l-85 12q9 73 38.5 108t83.5 35q32 0 79.5 -24t59.5 -24q32 0 42 49l85 -12q-8 -72 -38 -107.5t-84 -35.5zM427 -13q-103 0 -192.5 51t-142 137.5t-52.5 186t52.5 185.5t142 136.5t192.5 50.5q104 0 193.5 -50.5t142.5 -136.5 t53 -185.5t-53 -186t-142.5 -137.5t-193.5 -51zM427.5 150q82.5 0 143 62.5t60.5 148.5q0 85 -60.5 147.5t-143 62.5t-143 -62.5t-60.5 -147.5q0 -86 60.5 -148.5t143 -62.5z" />
<glyph unicode="&#xd6;" horiz-adv-x="853" d="M313 786q-35 0 -59 24.5t-24 58.5q0 22 10.5 41t30 30t42.5 11q33 0 57.5 -24.5t24.5 -57.5q0 -22 -11.5 -41t-30 -30.5t-40.5 -11.5zM541.5 786q-34.5 0 -58.5 24.5t-24 58.5t24 58t58.5 24t58.5 -24t24 -58t-24 -58.5t-58.5 -24.5zM427 -13q-103 0 -192.5 51 t-142 137.5t-52.5 186t52.5 185.5t142 136.5t192.5 50.5q104 0 193.5 -50.5t142.5 -136.5t53 -185.5t-53 -186t-142.5 -137.5t-193.5 -51zM427.5 150q82.5 0 143 62.5t60.5 148.5q0 85 -60.5 147.5t-143 62.5t-143 -62.5t-60.5 -147.5q0 -86 60.5 -148.5t143 -62.5z" />
<glyph unicode="&#xd7;" horiz-adv-x="595" d="M533 222l-106 -106l-132 132l-130 -130l-100 100l130 131l-132 131l106 106l132 -131l128 128l101 -100l-129 -129z" />
<glyph unicode="&#xd8;" horiz-adv-x="853" d="M714 611q102 -109 102 -250q0 -99 -53 -185.5t-142.5 -137.5t-193.5 -51q-102 0 -193 52l-32 -39h-153l94 111q-49 51 -76 115.5t-27 134.5q0 100 52.5 186t142 136.5t192.5 50.5t195 -52l32 39h152zM224 361q0 -61 33 -113l254 303q-40 20 -84 20q-82 0 -142.5 -62.5 t-60.5 -147.5zM427 150q83 0 143.5 62.5t60.5 148.5q0 62 -33 113l-255 -305q43 -19 84 -19z" />
<glyph unicode="&#xd9;" horiz-adv-x="795" d="M386 781l-157 141l156 27l119 -168h-118zM398 -13q-147 0 -241 92t-94 237v405h180v-397q0 -50 19.5 -89.5t55 -62t80.5 -22.5t81 22.5t55.5 62t19.5 89.5v397h179v-405q0 -145 -93.5 -237t-241.5 -92z" />
<glyph unicode="&#xda;" horiz-adv-x="795" d="M281 781l120 168l155 -27l-157 -141h-118zM398 -13q-147 0 -241 92t-94 237v405h180v-397q0 -50 19.5 -89.5t55 -62t80.5 -22.5t81 22.5t55.5 62t19.5 89.5v397h179v-405q0 -145 -93.5 -237t-241.5 -92z" />
<glyph unicode="&#xdb;" horiz-adv-x="795" d="M214 781l112 159h144l114 -159h-107l-79 75l-78 -75h-106zM398 -13q-147 0 -241 92t-94 237v405h180v-397q0 -50 19.5 -89.5t55 -62t80.5 -22.5t81 22.5t55.5 62t19.5 89.5v397h179v-405q0 -145 -93.5 -237t-241.5 -92z" />
<glyph unicode="&#xdc;" horiz-adv-x="795" d="M284 786q-36 0 -59.5 24.5t-23.5 58.5q0 22 10.5 41t29.5 30t43 11q33 0 57 -24.5t24 -57.5t-24 -58t-57 -25zM512.5 786q-34.5 0 -59 24.5t-24.5 58.5t24.5 58t59 24t58 -24t23.5 -58t-23.5 -58.5t-58 -24.5zM398 -13q-147 0 -241 92t-94 237v405h180v-397 q0 -50 19.5 -89.5t55 -62t80.5 -22.5t81 22.5t55.5 62t19.5 89.5v397h179v-405q0 -145 -93.5 -237t-241.5 -92z" />
<glyph unicode="&#xdd;" horiz-adv-x="736" d="M252 781l120 168l155 -27l-157 -141h-118zM278 0v249l-279 472h207l163 -304l170 304h199l-279 -472v-249h-181z" />
<glyph unicode="&#xde;" horiz-adv-x="698" d="M67 0v721h176v-111h159q120 0 197 -69.5t77 -178.5q0 -108 -77.5 -178t-196.5 -70h-155v-114h-180zM247 278h138q47 0 76.5 23.5t29.5 61t-29.5 61t-76.5 23.5h-138v-169z" />
<glyph unicode="&#xdf;" horiz-adv-x="657" d="M61 0v542q0 94 74.5 154.5t192 60.5t192.5 -60.5t75 -154.5q0 -54 -26.5 -96.5t-73.5 -66.5q41 -18 71 -46t46 -63.5t16 -74.5q0 -86 -68.5 -140.5t-176.5 -54.5h-70v152h39q40 0 65.5 20.5t25.5 52t-25.5 52t-65.5 20.5h-39v139h13q24 0 43.5 9t30.5 25t11 35 q0 30 -23.5 49t-61.5 19q-26 0 -45.5 -9t-30.5 -26.5t-11 -40.5v-497h-178z" />
<glyph unicode="&#xe0;" horiz-adv-x="613" d="M424 603h-117l-158 140l157 28zM313 555q42 0 79 -10t67.5 -30t52.5 -48t34 -65t12 -80v-322h-172v46q-28 -28 -67.5 -43.5t-82.5 -15.5q-88 0 -147.5 49t-59.5 125q0 78 66.5 129t163.5 51q62 0 127 -26v7q0 45 -31.5 72.5t-86.5 27.5q-60 0 -137 -40l-55 112 q124 61 237 61zM279 97q41 0 71.5 18t35.5 48v57q-46 18 -101 18q-37 0 -62 -20.5t-25 -51.5t23 -50t58 -19z" />
<glyph unicode="&#xe1;" horiz-adv-x="613" d="M477 743l-158 -140h-117l119 168zM313 555q42 0 79 -10t67.5 -30t52.5 -48t34 -65t12 -80v-322h-172v46q-28 -28 -67.5 -43.5t-82.5 -15.5q-88 0 -147.5 49t-59.5 125q0 78 66.5 129t163.5 51q62 0 127 -26v7q0 45 -31.5 72.5t-86.5 27.5q-60 0 -137 -40l-55 112 q124 61 237 61zM279 97q41 0 71.5 18t35.5 48v57q-46 18 -101 18q-37 0 -62 -20.5t-25 -51.5t23 -50t58 -19z" />
<glyph unicode="&#xe2;" horiz-adv-x="613" d="M318 677l-78 -74h-106l112 158h145l113 -158h-107zM313 555q42 0 79 -10t67.5 -30t52.5 -48t34 -65t12 -80v-322h-172v46q-28 -28 -67.5 -43.5t-82.5 -15.5q-88 0 -147.5 49t-59.5 125q0 78 66.5 129t163.5 51q62 0 127 -26v7q0 45 -31.5 72.5t-86.5 27.5q-60 0 -137 -40 l-55 112q124 61 237 61zM279 97q41 0 71.5 18t35.5 48v57q-46 18 -101 18q-37 0 -62 -20.5t-25 -51.5t23 -50t58 -19z" />
<glyph unicode="&#xe3;" horiz-adv-x="613" d="M251 649q-31 0 -42 -49l-85 11q9 73 38.5 108.5t83.5 35.5q32 0 79 -24t59 -24q33 0 42 49l85 -13q-8 -72 -37.5 -107t-83.5 -35q-33 0 -80 24t-59 24zM313 555q42 0 79 -10t67.5 -30t52.5 -48t34 -65t12 -80v-322h-172v46q-28 -28 -67.5 -43.5t-82.5 -15.5 q-88 0 -147.5 49t-59.5 125q0 78 66.5 129t163.5 51q62 0 127 -26v7q0 45 -31.5 72.5t-86.5 27.5q-60 0 -137 -40l-55 112q124 61 237 61zM279 97q41 0 71.5 18t35.5 48v57q-46 18 -101 18q-37 0 -62 -20.5t-25 -51.5t23 -50t58 -19z" />
<glyph unicode="&#xe4;" horiz-adv-x="613" d="M204 608q-23 0 -42.5 11.5t-30 30.5t-10.5 41t10.5 40.5t30 30t42.5 11.5q33 0 57.5 -24.5t24.5 -57.5q0 -34 -24.5 -58.5t-57.5 -24.5zM432.5 608q-34.5 0 -58.5 24.5t-24 58.5q0 33 24 57.5t58.5 24.5t58 -24.5t23.5 -57.5q0 -34 -23.5 -58.5t-58 -24.5zM313 555 q42 0 79 -10t67.5 -30t52.5 -48t34 -65t12 -80v-322h-172v46q-28 -28 -67.5 -43.5t-82.5 -15.5q-88 0 -147.5 49t-59.5 125q0 78 66.5 129t163.5 51q62 0 127 -26v7q0 45 -31.5 72.5t-86.5 27.5q-60 0 -137 -40l-55 112q124 61 237 61zM279 97q41 0 71.5 18t35.5 48v57 q-46 18 -101 18q-37 0 -62 -20.5t-25 -51.5t23 -50t58 -19z" />
<glyph unicode="&#xe5;" horiz-adv-x="613" d="M318 607q-25 0 -47.5 9.5t-39 26t-26.5 39.5t-10 48q0 51 36.5 87.5t86.5 36.5q25 0 48 -10t39.5 -26.5t26.5 -39.5t10 -48q0 -51 -36.5 -87t-87.5 -36zM318 783q-22 0 -37.5 -15.5t-15.5 -37.5t15.5 -38t37.5 -16t38 16t16 38t-16 37.5t-38 15.5zM313 555q42 0 79 -10 t67.5 -30t52.5 -48t34 -65t12 -80v-322h-172v46q-28 -28 -67.5 -43.5t-82.5 -15.5q-88 0 -147.5 49t-59.5 125q0 78 66.5 129t163.5 51q62 0 127 -26v7q0 45 -31.5 72.5t-86.5 27.5q-60 0 -137 -40l-55 112q124 61 237 61zM279 97q41 0 71.5 18t35.5 48v57q-46 18 -101 18 q-37 0 -62 -20.5t-25 -51.5t23 -50t58 -19z" />
<glyph unicode="&#xe6;" horiz-adv-x="974" d="M673 131q32 0 65.5 12.5t57.5 33.5l105 -106q-24 -24 -61 -43t-79.5 -30t-82.5 -11q-127 0 -209 80q-68 -80 -205 -80q-104 0 -169.5 48.5t-65.5 125.5q0 78 66.5 129t163.5 51q62 0 127 -26v7q0 27 -12.5 47.5t-39.5 32.5t-66 12q-65 0 -135 -35l-57 115q63 31 112.5 46 t107.5 15q115 0 176 -73q81 73 198 73q43 0 80 -10t67 -30t54 -48.5t39.5 -65.5t24 -82t8.5 -96h-388q9 -28 25.5 -48.5t40.5 -32t52 -11.5zM673 413q-40 0 -70.5 -22t-44.5 -60h220q-11 38 -38.5 60t-66.5 22zM281 105q47 0 76 20.5t29 54.5v30q-46 20 -101 20 q-36 0 -59 -18.5t-23 -46t21 -44t57 -16.5z" />
<glyph unicode="&#xe7;" horiz-adv-x="577" d="M558 87q-76 -85 -188 -97l-15 -35q23 -1 40.5 -10t27.5 -25t10 -37q0 -42 -32.5 -66.5t-84.5 -24.5q-62 0 -102 31l31 66q29 -24 62 -24q8 0 15.5 1.5t13 5.5t9 9.5t3.5 12.5q0 25 -32 25q-18 0 -30 -9l-26 24l26 58q-107 16 -180 96.5t-73 183.5q0 45 15.5 88.5t43.5 78 t65.5 61t83.5 41t94 14.5q133 0 219 -96l-117 -98q-19 20 -47 33t-56 13q-53 0 -91.5 -40t-38.5 -94q0 -37 17.5 -68.5t47.5 -50.5t65 -19q29 0 58 13.5t48 35.5z" />
<glyph unicode="&#xe8;" horiz-adv-x="621" d="M422 603h-118l-157 140l156 28zM319 131q32 0 65.5 12.5t57.5 33.5l105 -106q-24 -24 -61 -43t-79.5 -30t-82.5 -11q-126 0 -208.5 80.5t-82.5 205.5q0 123 80 202.5t203 79.5q129 0 201 -88.5t72 -243.5h-387q8 -28 24.5 -48.5t40.5 -32t52 -11.5zM319 413 q-40 0 -70.5 -22t-44.5 -60h220q-5 18 -15 33t-23 26t-30 17t-37 6z" />
<glyph unicode="&#xe9;" horiz-adv-x="621" d="M475 743l-158 -140h-117l119 168zM319 131q32 0 65.5 12.5t57.5 33.5l105 -106q-24 -24 -61 -43t-79.5 -30t-82.5 -11q-126 0 -208.5 80.5t-82.5 205.5q0 123 80 202.5t203 79.5q129 0 201 -88.5t72 -243.5h-387q8 -28 24.5 -48.5t40.5 -32t52 -11.5zM319 413 q-40 0 -70.5 -22t-44.5 -60h220q-5 18 -15 33t-23 26t-30 17t-37 6z" />
<glyph unicode="&#xea;" horiz-adv-x="621" d="M316 677l-78 -74h-106l112 158h144l114 -158h-107zM319 131q32 0 65.5 12.5t57.5 33.5l105 -106q-24 -24 -61 -43t-79.5 -30t-82.5 -11q-126 0 -208.5 80.5t-82.5 205.5q0 123 80 202.5t203 79.5q129 0 201 -88.5t72 -243.5h-387q8 -28 24.5 -48.5t40.5 -32t52 -11.5z M319 413q-40 0 -70.5 -22t-44.5 -60h220q-5 18 -15 33t-23 26t-30 17t-37 6z" />
<glyph unicode="&#xeb;" horiz-adv-x="621" d="M202 608q-35 0 -59 24.5t-24 58.5q0 33 24 57.5t59 24.5q21 0 40 -11.5t30.5 -30t11.5 -40.5q0 -17 -7 -32t-18 -26.5t-26 -18t-31 -6.5zM430.5 608q-34.5 0 -58.5 24.5t-24 58.5q0 33 24 57.5t58.5 24.5t58 -24.5t23.5 -57.5q0 -34 -23.5 -58.5t-58 -24.5zM319 131 q32 0 65.5 12.5t57.5 33.5l105 -106q-24 -24 -61 -43t-79.5 -30t-82.5 -11q-126 0 -208.5 80.5t-82.5 205.5q0 123 80 202.5t203 79.5q129 0 201 -88.5t72 -243.5h-387q8 -28 24.5 -48.5t40.5 -32t52 -11.5zM319 413q-40 0 -70.5 -22t-44.5 -60h220q-5 18 -15 33t-23 26 t-30 17t-37 6z" />
<glyph unicode="&#xec;" horiz-adv-x="302" d="M92 603l-157 140l156 28l119 -168h-118zM62 0v543h177v-543h-177z" />
<glyph unicode="&#xed;" horiz-adv-x="302" d="M90 603l120 168l155 -28l-157 -140h-118zM62 0v543h177v-543h-177z" />
<glyph unicode="&#xee;" horiz-adv-x="302" d="M-33 603l112 158h145l113 -158h-107l-79 74l-77 -74h-107zM62 0v543h177v-543h-177z" />
<glyph unicode="&#xef;" horiz-adv-x="302" d="M37 608q-18 0 -33.5 6.5t-26 18t-17 26.5t-6.5 32q0 22 10.5 40.5t30 30t42.5 11.5q33 0 57.5 -24.5t24.5 -57.5q0 -34 -24.5 -58.5t-57.5 -24.5zM265.5 608q-34.5 0 -58.5 24.5t-24 58.5q0 33 24 57.5t58.5 24.5t58.5 -24.5t24 -57.5q0 -34 -24 -58.5t-58.5 -24.5zM62 0 v543h177v-543h-177z" />
<glyph unicode="&#xf0;" horiz-adv-x="664" d="M448 648q93 -87 136 -169t43 -181q0 -137 -82.5 -224t-210.5 -87t-210 77.5t-82 197.5q0 112 65.5 184t168.5 72q91 0 154 -74q-34 70 -121 142l-103 -46l-39 87l55 24q-22 16 -71 47l157 67q35 -26 62 -49l91 41l38 -87zM335 136q35 0 62.5 15.5t43 42.5t15.5 61 q0 51 -34 85.5t-88 34.5q-35 0 -62.5 -15t-43 -42t-15.5 -61q0 -53 34 -87t88 -34z" />
<glyph unicode="&#xf1;" d="M270 649q-31 0 -42 -49l-85 11q9 73 38.5 108.5t83.5 35.5q32 0 79 -24t59 -24q33 0 42 49l85 -13q-8 -72 -37.5 -107t-84.5 -35q-32 0 -79 24t-59 24zM396 555q87 0 143 -58.5t56 -151.5v-345h-170v306q0 44 -25.5 72.5t-66.5 28.5t-68.5 -27t-27.5 -67l-1 3v-316h-177 v543h177v-62q26 35 67.5 54.5t92.5 19.5z" />
<glyph unicode="&#xf2;" horiz-adv-x="666" d="M322 603l-157 140l156 28l119 -168h-118zM333.5 -13q-80.5 0 -150 39t-110 104.5t-40.5 141.5t40.5 141.5t110 103.5t150 38t150.5 -38t110.5 -103.5t40.5 -141.5t-40.5 -141.5t-110.5 -104.5t-150.5 -39zM334 135q54 0 93.5 41t39.5 96t-39.5 95t-93.5 40 q-36 0 -66.5 -18t-48.5 -49.5t-18 -67.5q0 -55 39.5 -96t93.5 -41z" />
<glyph unicode="&#xf3;" horiz-adv-x="666" d="M217 603l120 168l155 -28l-157 -140h-118zM333.5 -13q-80.5 0 -150 39t-110 104.5t-40.5 141.5t40.5 141.5t110 103.5t150 38t150.5 -38t110.5 -103.5t40.5 -141.5t-40.5 -141.5t-110.5 -104.5t-150.5 -39zM334 135q54 0 93.5 41t39.5 96t-39.5 95t-93.5 40 q-36 0 -66.5 -18t-48.5 -49.5t-18 -67.5q0 -55 39.5 -96t93.5 -41z" />
<glyph unicode="&#xf4;" horiz-adv-x="666" d="M150 603l111 158h145l114 -158h-107l-79 74l-78 -74h-106zM333.5 -13q-80.5 0 -150 39t-110 104.5t-40.5 141.5t40.5 141.5t110 103.5t150 38t150.5 -38t110.5 -103.5t40.5 -141.5t-40.5 -141.5t-110.5 -104.5t-150.5 -39zM334 135q54 0 93.5 41t39.5 96t-39.5 95 t-93.5 40q-36 0 -66.5 -18t-48.5 -49.5t-18 -67.5q0 -55 39.5 -96t93.5 -41z" />
<glyph unicode="&#xf5;" horiz-adv-x="666" d="M405 601q-33 0 -79.5 24t-58.5 24q-32 0 -42 -49l-85 11q8 73 38 108.5t83 35.5q33 0 80 -24t59 -24q33 0 42 49l85 -13q-8 -72 -37.5 -107t-84.5 -35zM333.5 -13q-80.5 0 -150 39t-110 104.5t-40.5 141.5t40.5 141.5t110 103.5t150 38t150.5 -38t110.5 -103.5 t40.5 -141.5t-40.5 -141.5t-110.5 -104.5t-150.5 -39zM334 135q54 0 93.5 41t39.5 96t-39.5 95t-93.5 40q-36 0 -66.5 -18t-48.5 -49.5t-18 -67.5q0 -55 39.5 -96t93.5 -41z" />
<glyph unicode="&#xf6;" horiz-adv-x="666" d="M219 608q-35 0 -59 24.5t-24 58.5q0 22 11 40.5t30 30t42 11.5q34 0 58 -24.5t24 -57.5q0 -34 -24 -58.5t-58 -24.5zM448.5 608q-34.5 0 -59 24.5t-24.5 58.5q0 33 24.5 57.5t59 24.5t58 -24.5t23.5 -57.5q0 -34 -23.5 -58.5t-58 -24.5zM333.5 -13q-80.5 0 -150 39 t-110 104.5t-40.5 141.5t40.5 141.5t110 103.5t150 38t150.5 -38t110.5 -103.5t40.5 -141.5t-40.5 -141.5t-110.5 -104.5t-150.5 -39zM334 135q54 0 93.5 41t39.5 96t-39.5 95t-93.5 40q-36 0 -66.5 -18t-48.5 -49.5t-18 -67.5q0 -55 39.5 -96t93.5 -41z" />
<glyph unicode="&#xf7;" horiz-adv-x="636" d="M320 464q-40 0 -67.5 28t-27.5 68q0 36 28 63.5t67 27.5q38 0 65.5 -27.5t27.5 -63.5q0 -40 -27.5 -68t-65.5 -28zM60 280v141h515v-141h-515zM320 50q-19 0 -37 8t-30.5 20.5t-20 30.5t-7.5 37q0 37 28 64t67 27q38 0 65.5 -27.5t27.5 -63.5q0 -39 -27.5 -67.5 t-65.5 -28.5z" />
<glyph unicode="&#xf8;" horiz-adv-x="666" d="M558 460q77 -81 77 -188q0 -76 -40.5 -141.5t-110.5 -104.5t-150 -39q-81 0 -151 40l-24 -27h-119l71 82q-78 84 -78 190q0 76 40.5 141.5t110 103.5t150.5 38t152 -39l24 27h119zM201 272q0 -35 17 -66l166 191q-22 10 -50 10q-36 0 -66.5 -18t-48.5 -49.5t-18 -67.5z M334 135q54 0 93.5 41t39.5 96q0 33 -17 65l-165 -191q22 -11 49 -11z" />
<glyph unicode="&#xf9;" d="M430 603h-117l-158 140l157 28zM416 543h177v-543h-177v62q-26 -35 -67.5 -55t-92.5 -20q-87 0 -143 59t-56 151v346h170v-306q0 -45 25.5 -73.5t66.5 -28.5t68.5 27.5t27.5 67.5l1 -3v316z" />
<glyph unicode="&#xfa;" d="M483 743l-157 -140h-118l120 168zM416 543h177v-543h-177v62q-26 -35 -67.5 -55t-92.5 -20q-87 0 -143 59t-56 151v346h170v-306q0 -45 25.5 -73.5t66.5 -28.5t68.5 27.5t27.5 67.5l1 -3v316z" />
<glyph unicode="&#xfb;" d="M324 677l-77 -74h-106l111 158h145l113 -158h-107zM416 543h177v-543h-177v62q-26 -35 -67.5 -55t-92.5 -20q-87 0 -143 59t-56 151v346h170v-306q0 -45 25.5 -73.5t66.5 -28.5t68.5 27.5t27.5 67.5l1 -3v316z" />
<glyph unicode="&#xfc;" d="M210 608q-35 0 -59 24.5t-24 58.5q0 22 11 40.5t30 30t42 11.5q33 0 57.5 -24.5t24.5 -57.5q0 -34 -24.5 -58.5t-57.5 -24.5zM438.5 608q-34.5 0 -58.5 24.5t-24 58.5q0 33 24.5 57.5t58.5 24.5t58 -24.5t24 -57.5q0 -34 -24 -58.5t-58.5 -24.5zM416 543h177v-543h-177 v62q-26 -35 -67.5 -55t-92.5 -20q-87 0 -143 59t-56 151v346h170v-306q0 -45 25.5 -73.5t66.5 -28.5t68.5 27.5t27.5 67.5l1 -3v316z" />
<glyph unicode="&#xfd;" horiz-adv-x="634" d="M204 603l119 168l156 -28l-158 -140h-117zM201 -189q-38 0 -80 11t-73 28l37 117q49 -27 75 -27q44 0 58 23l15 31l-223 549h183l127 -358l120 358h181l-214 -559q-32 -83 -85.5 -128t-120.5 -45z" />
<glyph unicode="&#xfe;" horiz-adv-x="700" d="M416 555q109 0 179 -79.5t70 -203.5q0 -125 -70 -205t-179 -80t-178 82v-250h-178v915h178v-260q69 81 178 81zM362 135q58 0 95 38.5t37 98.5q0 59 -37 97t-95 38q-55 0 -89.5 -38t-34.5 -97q0 -60 34.5 -98.5t89.5 -38.5z" />
<glyph unicode="&#xff;" horiz-adv-x="634" d="M206 608q-35 0 -59 24.5t-24 58.5q0 22 10.5 40.5t30 30t42.5 11.5q21 0 40 -11.5t30.5 -30t11.5 -40.5q0 -17 -7 -32t-18 -26.5t-26 -18t-31 -6.5zM434.5 608q-34.5 0 -58.5 24.5t-24 58.5q0 33 24 57.5t58.5 24.5t58.5 -24.5t24 -57.5q0 -34 -24 -58.5t-58.5 -24.5z M201 -189q-38 0 -80 11t-73 28l37 117q49 -27 75 -27q44 0 58 23l15 31l-223 549h183l127 -358l120 358h181l-214 -559q-32 -83 -85.5 -128t-120.5 -45z" />
<glyph unicode="&#x152;" horiz-adv-x="1095" d="M1052 561h-388v-113h352v-160h-352v-127h388v-161h-625q-104 0 -192.5 47t-141.5 130t-53 182q0 75 31 142t83.5 115.5t124 76.5t148.5 28h625v-160zM427 163h57v396h-57q-83 0 -143 -58t-60 -142t59.5 -140t143.5 -56z" />
<glyph unicode="&#x153;" horiz-adv-x="1059" d="M758 131q32 0 65.5 12.5t57.5 33.5l105 -106q-36 -36 -99 -60t-124 -24q-130 0 -215 87q-42 -41 -97.5 -64t-116.5 -23q-81 0 -150.5 39t-110 104.5t-40.5 141.5t40.5 141.5t110 103.5t150.5 38q123 0 213 -85q80 85 208 85q129 0 201 -88.5t72 -243.5h-388 q13 -42 44.5 -67t73.5 -25zM758 413q-40 0 -70.5 -22t-44.5 -60h220q-11 38 -38.5 60t-66.5 22zM334 135q54 0 93.5 41t39.5 96t-39.5 95t-93.5 40q-36 0 -66.5 -18t-48.5 -49.5t-18 -67.5q0 -55 39.5 -96t93.5 -41z" />
<glyph unicode="&#x178;" horiz-adv-x="736" d="M254 786q-23 0 -42 11.5t-30 30.5t-11 41q0 34 24 58t59 24q22 0 41 -11t30 -30t11 -41q0 -16 -6.5 -31.5t-17.5 -26.5t-26.5 -18t-31.5 -7zM483 786q-34 0 -58.5 24.5t-24.5 58.5t24.5 58t58.5 24q23 0 41.5 -11t29.5 -30t11 -41q0 -34 -24 -58.5t-58 -24.5zM278 0v249 l-279 472h207l163 -304l170 304h199l-279 -472v-249h-181z" />
<glyph unicode="&#x2c6;" horiz-adv-x="501" d="M66 603l111 158h145l114 -158h-107l-79 74l-78 -74h-106z" />
<glyph unicode="&#x2dc;" horiz-adv-x="463" d="M303 601q-32 0 -79 24t-59 24q-31 0 -42 -49l-85 11q9 73 38.5 108.5t83.5 35.5q32 0 79 -24t59 -24q33 0 42 49l85 -13q-8 -72 -37.5 -107t-84.5 -35z" />
<glyph unicode="&#x2000;" horiz-adv-x="516" />
<glyph unicode="&#x2001;" horiz-adv-x="1032" />
<glyph unicode="&#x2002;" horiz-adv-x="516" />
<glyph unicode="&#x2003;" horiz-adv-x="1032" />
<glyph unicode="&#x2004;" horiz-adv-x="344" />
<glyph unicode="&#x2005;" horiz-adv-x="258" />
<glyph unicode="&#x2006;" horiz-adv-x="172" />
<glyph unicode="&#x2007;" horiz-adv-x="172" />
<glyph unicode="&#x2008;" horiz-adv-x="129" />
<glyph unicode="&#x2009;" horiz-adv-x="206" />
<glyph unicode="&#x200a;" horiz-adv-x="57" />
<glyph unicode="&#x2010;" horiz-adv-x="380" d="M44 216v148h293v-148h-293z" />
<glyph unicode="&#x2011;" horiz-adv-x="380" d="M44 216v148h293v-148h-293z" />
<glyph unicode="&#x2012;" horiz-adv-x="380" d="M44 216v148h293v-148h-293z" />
<glyph unicode="&#x2013;" horiz-adv-x="597" d="M44 217v146h509v-146h-509z" />
<glyph unicode="&#x2014;" horiz-adv-x="917" d="M44 217v146h830v-146h-830z" />
<glyph unicode="&#x2018;" horiz-adv-x="317" d="M168 733l61 -46q-53 -46 -67 -100q42 0 73 -32t31 -75q0 -30 -14.5 -55t-39 -39.5t-52.5 -14.5q-50 0 -81.5 41t-31.5 105q0 106 121 216z" />
<glyph unicode="&#x2019;" horiz-adv-x="317" d="M149 372l-61 46q53 46 67 100q-42 0 -73 31.5t-31 75.5q0 45 31.5 77t75.5 32q49 0 80.5 -41t31.5 -105q0 -107 -121 -216z" />
<glyph unicode="&#x201c;" horiz-adv-x="611" d="M168 733l61 -46q-53 -46 -67 -100q42 0 73 -32t31 -75q0 -30 -14.5 -55t-39 -39.5t-52.5 -14.5q-50 0 -81.5 41t-31.5 105q0 106 121 216zM462 733l61 -46q-53 -46 -67 -100q42 0 73 -32t31 -75q0 -22 -8.5 -42.5t-23 -35t-34 -23t-40.5 -8.5q-50 0 -81.5 41t-31.5 105 q0 106 121 216z" />
<glyph unicode="&#x201d;" horiz-adv-x="611" d="M149 372l-61 46q53 46 67 100q-42 0 -73 31.5t-31 75.5q0 45 31.5 77t75.5 32q49 0 80.5 -41t31.5 -105q0 -107 -121 -216zM443 372l-61 46q53 46 67 100q-42 0 -73 31.5t-31 75.5q0 45 31.5 77t75.5 32q49 0 80.5 -41t31.5 -105q0 -107 -121 -216z" />
<glyph unicode="&#x2026;" horiz-adv-x="906" d="M162 -13q-47 0 -79.5 32.5t-32.5 78.5q0 43 32.5 74.5t79.5 31.5q43 0 74.5 -32t31.5 -74q0 -46 -31.5 -78.5t-74.5 -32.5zM456 -13q-47 0 -79.5 32.5t-32.5 78.5q0 43 32.5 74.5t79.5 31.5q28 0 52.5 -14.5t39 -39t14.5 -52.5q0 -46 -31.5 -78.5t-74.5 -32.5zM750 -13 q-47 0 -79.5 32.5t-32.5 78.5q0 43 32.5 74.5t79.5 31.5q28 0 52.5 -14.5t39 -39t14.5 -52.5q0 -46 -31.5 -78.5t-74.5 -32.5z" />
<glyph unicode="&#x202f;" horiz-adv-x="206" />
<glyph unicode="&#x205f;" horiz-adv-x="258" />
<glyph unicode="&#x20ac;" horiz-adv-x="736" d="M427 150q93 0 157 78l130 -116q-55 -58 -129.5 -91.5t-157.5 -33.5q-128 0 -231.5 76.5t-139.5 193.5h-71v79h56q-1 8 -1 25q0 13 2 36h-57v79h74q39 112 141 185t227 73q83 0 157.5 -33t129.5 -91l-131 -116q-19 23 -43.5 40.5t-53.5 27t-59 9.5q-51 0 -96 -26t-73 -69 h223v-79h-254q-3 -17 -3 -36q0 -17 1 -25h256v-79h-230q27 -48 74.5 -77.5t101.5 -29.5z" />
<glyph unicode="&#x25fc;" horiz-adv-x="540" d="M0 541h541v-541h-541v541z" />
</font>
</defs>
</svg>
